<svg xmlns="http://www.w3.org/2000/svg" viewBox="0 0 480 100" width="480" height="100">
  <defs>
    <linearGradient id="mainGrad" x1="0%" y1="0%" x2="100%" y2="100%">
      <stop offset="0%" style="stop-color:#2196F3"/>
      <stop offset="100%" style="stop-color:#1565C0"/>
    </linearGradient>
    <linearGradient id="accentGrad" x1="0%" y1="0%" x2="100%" y2="100%">
      <stop offset="0%" style="stop-color:#64B5F6"/>
      <stop offset="100%" style="stop-color:#1E88E5"/>
    </linearGradient>
  </defs>

  <!-- Logo Icon (links, vertikal zentriert) -->
  <g transform="translate(5, 3) scale(0.20)">
    <!-- Hexagon -->
    <polygon points="256,32 432,128 432,320 256,416 80,320 80,128" fill="url(#mainGrad)"/>
    <polygon points="256,56 408,140 408,308 256,392 104,308 104,140" fill="none" stroke="#ffffff" stroke-width="2" opacity="0.3"/>

    <!-- Server 1 -->
    <rect x="156" y="120" width="200" height="50" rx="6" fill="#ffffff" opacity="0.95"/>
    <rect x="166" y="130" width="120" height="10" rx="2" fill="#1565C0"/>
    <rect x="166" y="145" width="80" height="6" rx="1" fill="#90CAF9"/>
    <circle cx="326" cy="145" r="10" fill="#4CAF50"/>
    <circle cx="346" cy="145" r="6" fill="#FFC107"/>

    <!-- Server 2 -->
    <rect x="156" y="180" width="200" height="50" rx="6" fill="#ffffff" opacity="0.95"/>
    <rect x="166" y="190" width="100" height="10" rx="2" fill="#1565C0"/>
    <rect x="166" y="205" width="60" height="6" rx="1" fill="#90CAF9"/>
    <circle cx="326" cy="205" r="10" fill="#4CAF50"/>
    <circle cx="346" cy="205" r="6" fill="#4CAF50"/>

    <!-- Server 3 -->
    <rect x="156" y="240" width="200" height="50" rx="6" fill="#ffffff" opacity="0.95"/>
    <rect x="166" y="250" width="140" height="10" rx="2" fill="#1565C0"/>
    <rect x="166" y="265" width="100" height="6" rx="1" fill="#90CAF9"/>
    <circle cx="326" cy="265" r="10" fill="#4CAF50"/>
    <circle cx="346" cy="265" r="6" fill="#FFC107"/>

    <!-- Netzwerk -->
    <line x1="256" y1="290" x2="256" y2="330" stroke="#ffffff" stroke-width="3" opacity="0.8"/>
    <line x1="256" y1="330" x2="196" y2="360" stroke="#ffffff" stroke-width="3" opacity="0.8"/>
    <line x1="256" y1="330" x2="316" y2="360" stroke="#ffffff" stroke-width="3" opacity="0.8"/>
    <circle cx="256" cy="330" r="8" fill="#ffffff"/>
    <circle cx="196" cy="360" r="12" fill="url(#accentGrad)" stroke="#ffffff" stroke-width="2"/>
    <circle cx="316" cy="360" r="12" fill="url(#accentGrad)" stroke="#ffffff" stroke-width="2"/>

    <!-- Pfeil -->
    <polygon points="256,70 280,95 270,95 270,110 242,110 242,95 232,95" fill="#ffffff" opacity="0.9"/>
  </g>

  <!-- Text (vertikal zentriert neben Icon) -->
  <g transform="translate(100, 12)">
    <!-- PVE Commander -->
    <text x="0" y="38" font-family="Segoe UI, Roboto, Arial, sans-serif" font-size="36" font-weight="700" fill="#1565C0">
      PVE
    </text>
    <text x="75" y="38" font-family="Segoe UI, Roboto, Arial, sans-serif" font-size="36" font-weight="300" fill="#424242">
      Commander
    </text>

    <!-- Tagline -->
    <text x="0" y="68" font-family="Segoe UI, Roboto, Arial, sans-serif" font-size="14" fill="#757575">
      VM-Management mit NetBox, Ansible &amp; Terraform
    </text>
  </g>
</svg>
